
<svg xmlns="http://www.w3.org/2000/svg" xmlns:xlink="http://www.w3.org/1999/xlink" viewBox="0,0,256,256" width="50px" height="50px" fill-rule="nonzero">
<g transform="">
<g fill="#736d6d" fill-rule="nonzero" stroke="none" stroke-width="1" stroke-linecap="butt" stroke-linejoin="miter" stroke-miterlimit="10" stroke-dasharray="" stroke-dashoffset="0" font-family="none" font-weight="none" font-size="none" text-anchor="none" style="mix-blend-mode: normal"><path d="M0,256v-256h256v256z" id="bgRectangle"></path></g><g fill="#edd58a" fill-rule="nonzero" stroke="none" stroke-width="1" stroke-linecap="butt" stroke-linejoin="miter" stroke-miterlimit="10" stroke-dasharray="" stroke-dashoffset="0" font-family="none" font-weight="none" font-size="none" text-anchor="none" style="mix-blend-mode: normal"><g transform="scale(5.12,5.12)"><path d="M25.90625,3.28125c-9.33984,0.21094 -10.39844,7.03516 -8.40625,14.90625c-0.3125,0.21094 -0.94922,0.96094 -0.84375,2.21875c0.3125,2.30859 1.25781,2.9375 1.78125,2.9375c0.21094,1.57422 0.95313,3.23047 1.6875,4.28125c0.52344,0.73438 0.71875,1.67969 0.71875,2.625c0,0.83984 0.01172,0.30469 -0.09375,1.25c-0.10547,0.30469 -0.25391,0.58203 -0.4375,0.84375c0.21484,0.80859 1.45313,4.65625 5.6875,4.65625c4.33594,0 5.5,-4.15234 5.625,-4.65625c-0.19531,-0.25781 -0.35156,-0.53906 -0.46875,-0.84375c-0.10547,-1.15234 -0.125,-0.61719 -0.125,-1.5625c0,-0.83984 0.32813,-1.55859 0.75,-2.1875c0.73438,-1.05078 1.44531,-2.83203 1.65625,-4.40625c0.63281,0 1.57031,-0.62891 1.78125,-2.9375c0.10547,-1.25781 -0.39062,-2.00781 -0.8125,-2.21875c1.05078,-2.9375 3.02734,-12.05469 -3.6875,-13c-0.73437,-1.25781 -2.50391,-1.90625 -4.8125,-1.90625zM33.28125,33.75c-0.83984,2.23438 -3.0625,5.25 -7.28125,5.25c-4.22266,0 -6.4375,-2.96094 -7.3125,-5.21875c-4.15625,2.55859 -12.625,3.34375 -12.625,12.21875h39.875c0,-9.10156 -8.42969,-9.72656 -12.65625,-12.25z"></path></g></g></g></svg>